<svg xmlns="http://www.w3.org/2000/svg" width="160" height="64" viewBox="0 0 160 64">
    <g fill="none" fill-rule="evenodd">
        <g fill="rgba(255,255,255, .87)">
            <path fill-rule="nonzero" d="M56.61 39.937h2.013v6.52H56.61v-6.52zm-.16-2.053c0-.322.113-.597.342-.825.228-.228.503-.342.825-.342.322 0 .597.114.825.342.228.228.342.503.342.825 0 .322-.114.597-.342.826a1.124 1.124 0 0 1-.825.342c-.322 0-.597-.114-.825-.342a1.124 1.124 0 0 1-.343-.826zm3.61 2.053h1.932v.886h.027a1.63 1.63 0 0 1 .269-.376c.116-.125.255-.237.416-.335a2.294 2.294 0 0 1 1.22-.335c.51 0 .922.077 1.235.234.313.156.557.373.731.65.174.278.293.604.356.98.062.376.094.783.094 1.221v3.596h-2.013v-3.193a8.78 8.78 0 0 0-.02-.584 1.841 1.841 0 0 0-.12-.557.961.961 0 0 0-.31-.416c-.138-.107-.337-.16-.597-.16-.259 0-.47.046-.63.14a.96.96 0 0 0-.37.376c-.084.156-.14.333-.167.53-.027.196-.04.402-.04.617v3.247H60.06v-6.52zm7.878-3.622h2.013v4.32h.026c.233-.313.53-.535.893-.664.362-.13.753-.195 1.174-.195.465 0 .88.096 1.247.289.367.192.678.45.933.771a3.6 3.6 0 0 1 .59 1.107c.139.416.208.852.208 1.308 0 .492-.076.944-.228 1.355a3.111 3.111 0 0 1-.65 1.067c-.282.3-.62.532-1.014.698a3.36 3.36 0 0 1-1.315.248c-.232 0-.451-.032-.657-.094a2.838 2.838 0 0 1-.57-.242 2.385 2.385 0 0 1-.772-.684h-.026v.859h-1.852V36.315zm1.852 6.882c0 .492.14.89.422 1.195.282.304.678.456 1.188.456.51 0 .905-.152 1.187-.456.282-.305.423-.703.423-1.195 0-.492-.141-.89-.423-1.194-.282-.304-.678-.456-1.187-.456-.51 0-.906.152-1.188.456-.282.304-.422.702-.422 1.194zm6.16 0c0-.518.094-.988.282-1.408.187-.42.445-.78.771-1.08.326-.3.711-.53 1.154-.691a4.11 4.11 0 0 1 1.415-.242c.501 0 .973.08 1.416.242.443.16.827.391 1.154.69.326.3.583.66.771 1.08.188.421.282.89.282 1.41 0 .518-.094.988-.282 1.408-.188.42-.445.78-.771 1.08-.327.3-.711.53-1.154.691a4.11 4.11 0 0 1-1.416.242c-.5 0-.972-.08-1.415-.242a3.407 3.407 0 0 1-1.154-.69c-.326-.3-.584-.66-.771-1.08a3.416 3.416 0 0 1-.282-1.41zm2.012 0c0 .492.141.89.423 1.195.282.304.677.456 1.187.456s.906-.152 1.188-.456c.281-.305.422-.703.422-1.195 0-.492-.14-.89-.422-1.194-.282-.304-.678-.456-1.188-.456-.51 0-.905.152-1.187.456-.282.304-.423.702-.423 1.194zm8.16-.228l-2.174-3.032h2.375l1.154 1.771 1.113-1.77h2.24l-2.119 3.031 2.509 3.489h-2.375l-1.422-2.174-1.53 2.174h-2.347l2.576-3.489z"/>
            <path d="M71.592 24.845c.338.847.516 1.778.516 2.803 0 1.12-.202 2.137-.609 3.045a6.984 6.984 0 0 1-1.667 2.333 7.332 7.332 0 0 1-2.494 1.495 8.886 8.886 0 0 1-3.058.521 8.899 8.899 0 0 1-3.061-.521 7.324 7.324 0 0 1-2.492-1.495 6.859 6.859 0 0 1-.461-.466l3.68-2.132c.588.515 1.358.787 2.334.787 1.101 0 1.956-.328 2.565-.986.608-.657.913-1.52.913-2.581 0-.196-.02-.378-.042-.56zm48.003-4.243v14.091h-4.642V20.602h4.642zm-12.573-.36c1.1 0 1.99.168 2.668.507a3.87 3.87 0 0 1 1.58 1.408c.377.597.632 1.304.77 2.116.132.81.2 1.69.2 2.638v7.772h-4.35v-6.902c0-.405-.013-.827-.043-1.26a4.009 4.009 0 0 0-.26-1.205 2.075 2.075 0 0 0-.667-.899c-.3-.233-.73-.347-1.291-.347-.56 0-1.014.101-1.364.303a2.087 2.087 0 0 0-.797.812 3.365 3.365 0 0 0-.363 1.147c-.057.424-.085.87-.085 1.334v7.017h-4.35V20.59h4.176v1.914h.058c.135-.272.33-.542.58-.812.25-.272.55-.512.898-.725a5.025 5.025 0 0 1 2.64-.725zm-15.806 0c.947 0 1.747.159 2.394.477.648.32 1.158.755 1.536 1.306.377.552.649 1.2.812 1.943.164.745.248 1.543.248 2.392v8.323h-4.352v-8.207c0-.656-.138-1.222-.42-1.696-.279-.474-.777-.71-1.493-.71-.503 0-.923.08-1.261.246a2.106 2.106 0 0 0-.812.68c-.204.29-.348.63-.435 1.016-.085.387-.13.792-.13 1.217v7.454h-4.349v-7.454c0-.25-.01-.558-.03-.927a3.808 3.808 0 0 0-.201-1.045 2.026 2.026 0 0 0-.568-.84c-.261-.233-.642-.347-1.144-.347-.562 0-1.015.101-1.365.303a2.07 2.07 0 0 0-.795.812 3.326 3.326 0 0 0-.365 1.147c-.057.424-.085.87-.085 1.334v7.017h-4.35V20.59h4.176v1.914h.058c.135-.272.329-.542.58-.812.25-.272.55-.512.9-.725a5.033 5.033 0 0 1 2.638-.725c.986 0 1.86.202 2.625.608.762.406 1.337 1.046 1.724 1.915.503-.908 1.112-1.557 1.828-1.944.714-.385 1.595-.58 2.636-.58zm-26.937.012c1.082 0 2.101.172 3.06.52.956.35 1.789.847 2.492 1.495.162.148.314.307.46.468l-3.68 2.13c-.588-.513-1.357-.785-2.332-.785-1.101 0-1.958.327-2.566.984-.609.659-.912 1.519-.912 2.58 0 .197.02.38.04.561l-3.874 2.244c-.34-.847-.518-1.78-.518-2.804 0-1.121.202-2.135.61-3.043a7.036 7.036 0 0 1 1.666-2.335 7.41 7.41 0 0 1 2.494-1.495 8.89 8.89 0 0 1 3.06-.52zm52.996-6.95c.357 0 .7.066 1.03.196.331.133.613.312.85.538.236.227.425.496.566.806.142.311.212.648.212 1.005 0 .359-.07.694-.212 1.005-.141.31-.33.579-.567.806a2.757 2.757 0 0 1-1.88.734c-.756 0-1.389-.247-1.897-.749-.51-.5-.764-1.099-.764-1.796 0-.34.066-.664.198-.975.133-.313.321-.58.566-.807.246-.227.529-.41.849-.553.322-.14.67-.21 1.049-.21z"/>
        </g>
        <path fill="#00AEEF" d="M15.124 10.067V23.13a10.159 10.159 0 0 1 5.136-1.389c5.666 0 10.26 4.624 10.272 10.332 0 2.86 2.3 5.177 5.137 5.177 2.837 0 5.136-2.318 5.136-5.177v-1.294c0-1.43 1.15-2.59 2.568-2.59a2.579 2.579 0 0 1 2.568 2.59V51.1l-4.966 2.89-.17.086V41.038a10.159 10.159 0 0 1-5.136 1.389c-5.666 0-10.26-4.623-10.272-10.332 0-2.86-2.3-5.177-5.137-5.177-2.837 0-5.136 2.318-5.136 5.177v1.271c0 1.43-1.15 2.59-2.569 2.59a2.579 2.579 0 0 1-2.568-2.59V13.043l4.966-2.89.17-.086zm-2.58 28.477a2.567 2.567 0 0 1 2.557 2.577 2.567 2.567 0 0 1-2.557 2.577 2.567 2.567 0 0 1-2.557-2.577 2.567 2.567 0 0 1 2.557-2.577zm30.84-18.121a2.567 2.567 0 0 1 2.557 2.576 2.567 2.567 0 0 1-2.556 2.578 2.567 2.567 0 0 1-2.557-2.578 2.567 2.567 0 0 1 2.557-2.576z"/>
    </g>
</svg>
